<?xml version="1.0" encoding="UTF-8" standalone="no"?>
<!-- Created with Inkscape (http://www.inkscape.org/) -->

<svg
   xmlns:dc="http://purl.org/dc/elements/1.1/"
   xmlns:cc="http://creativecommons.org/ns#"
   xmlns:rdf="http://www.w3.org/1999/02/22-rdf-syntax-ns#"
   xmlns:svg="http://www.w3.org/2000/svg"
   xmlns="http://www.w3.org/2000/svg"
   xmlns:xlink="http://www.w3.org/1999/xlink"
   xmlns:sodipodi="http://sodipodi.sourceforge.net/DTD/sodipodi-0.dtd"
   xmlns:inkscape="http://www.inkscape.org/namespaces/inkscape"
   width="117"
   height="25"
   viewBox="0 0 30.95625 6.6145835"
   version="1.1"
   id="svg893"
   inkscape:version="0.92.2 (5c3e80d, 2017-08-06)"
   sodipodi:docname="logo2018_crop.svg">
  <defs
     id="defs887">
    <radialGradient
       inkscape:collect="always"
       xlink:href="#linearGradient5373"
       id="radialGradient5375"
       cx="304.99994"
       cy="565.51965"
       fx="304.99994"
       fy="565.51965"
       r="5"
       gradientTransform="matrix(0.34392314,0.13756835,-0.10583332,0.26458502,-16.999876,102.50287)"
       gradientUnits="userSpaceOnUse" />
    <linearGradient
       inkscape:collect="always"
       id="linearGradient5373">
      <stop
         style="stop-color:#000000;stop-opacity:0.09540636"
         offset="0"
         id="stop5369" />
      <stop
         id="stop5377"
         offset="0.66666961"
         style="stop-color:#000000;stop-opacity:0.024" />
      <stop
         style="stop-color:#000000;stop-opacity:1"
         offset="1"
         id="stop5371" />
    </linearGradient>
    <radialGradient
       inkscape:collect="always"
       xlink:href="#linearGradient5360"
       id="radialGradient5382"
       gradientUnits="userSpaceOnUse"
       gradientTransform="matrix(0.88908779,0.45775549,-0.73104761,1.4198967,445.96573,-377.58089)"
       cx="305"
       cy="563.76294"
       fx="305"
       fy="563.76294"
       r="2.48633" />
    <linearGradient
       inkscape:collect="always"
       id="linearGradient5360">
      <stop
         style="stop-color:#000000;stop-opacity:1;"
         offset="0"
         id="stop5356" />
      <stop
         style="stop-color:#000000;stop-opacity:0;"
         offset="1"
         id="stop5358" />
    </linearGradient>
  </defs>
  <sodipodi:namedview
     id="base"
     pagecolor="#ffffff"
     bordercolor="#666666"
     borderopacity="1.0"
     inkscape:pageopacity="0.0"
     inkscape:pageshadow="2"
     inkscape:zoom="5.6"
     inkscape:cx="57.95477"
     inkscape:cy="87.945025"
     inkscape:document-units="mm"
     inkscape:current-layer="layer1"
     showgrid="false"
     units="px"
     inkscape:window-width="3840"
     inkscape:window-height="2099"
     inkscape:window-x="0"
     inkscape:window-y="28"
     inkscape:window-maximized="1" />
  <metadata
     id="metadata890">
    <rdf:RDF>
      <cc:Work
         rdf:about="">
        <dc:format>image/svg+xml</dc:format>
        <dc:type
           rdf:resource="http://purl.org/dc/dcmitype/StillImage" />
        <dc:title></dc:title>
      </cc:Work>
    </rdf:RDF>
  </metadata>
  <g
     inkscape:label="Layer 1"
     inkscape:groupmode="layer"
     id="layer1"
     transform="translate(0,-290.3854)">
    <path
       inkscape:connector-curvature="0"
       style="opacity:0.85;fill:#55d400;fill-opacity:1;stroke:none;stroke-width:0.30000001;stroke-linecap:butt;stroke-linejoin:round;stroke-miterlimit:4;stroke-dasharray:none;stroke-opacity:1;paint-order:stroke fill markers"
       d="m 26.722921,292.76631 h 2.645833 v 1.32291 h -2.645833 z"
       id="rect5336" />
    <g
       transform="translate(-52.652082,145.2559)"
       id="g5263"
       style="opacity:0.5;fill:#ccff00;fill-opacity:1">
      <path
         sodipodi:nodetypes="ccccc"
         inkscape:connector-curvature="0"
         id="rect5243"
         d="m 79.375,147.51041 h 2.645834 v 1.32292 L 79.375,148.56874 Z"
         style="opacity:0.1;fill:#ccff00;fill-opacity:1;stroke:none;stroke-width:0.22237527;stroke-linecap:butt;stroke-linejoin:round;stroke-miterlimit:4;stroke-dasharray:none;stroke-opacity:1;paint-order:stroke fill markers" />
      <path
         style="opacity:0.4;fill:#ccff00;fill-opacity:1;stroke:none;stroke-width:0.22237527;stroke-linecap:butt;stroke-linejoin:round;stroke-miterlimit:4;stroke-dasharray:none;stroke-opacity:1;paint-order:stroke fill markers"
         d="m 79.375,147.51041 h 2.645834 v 1.32292 L 79.375,148.03957 Z"
         id="path5256"
         inkscape:connector-curvature="0"
         sodipodi:nodetypes="ccccc" />
      <path
         sodipodi:nodetypes="ccccc"
         inkscape:connector-curvature="0"
         id="path5258"
         d="m 79.375,147.51041 h 2.645834 v 1.32292 z"
         style="opacity:0.6;fill:#ccff00;fill-opacity:1;stroke:none;stroke-width:0.22237527;stroke-linecap:butt;stroke-linejoin:round;stroke-miterlimit:4;stroke-dasharray:none;stroke-opacity:1;paint-order:stroke fill markers" />
    </g>
    <g
       transform="translate(-52.652082,145.2559)"
       id="g5328"
       style="fill:#ffffff;fill-opacity:1">
      <path
         inkscape:connector-curvature="0"
         id="path4544"
         d="m 61.383332,146.1875 a 2.6458332,2.6458332 0 0 0 -2.645833,2.64583 2.6458332,2.6458332 0 0 0 2.645833,2.64583 h 2.645834 v -2.64583 a 2.6458332,2.6458332 0 0 0 -2.645834,-2.64583 z m 0,1.32291 a 1.3229159,1.3229159 0 0 1 1.322917,1.32292 v 1.32292 h -1.322917 a 1.3229159,1.3229159 0 0 1 -1.322916,-1.32292 1.3229159,1.3229159 0 0 1 1.322916,-1.32292 z"
         style="opacity:1;fill:#ffffff;fill-opacity:1;stroke:none;stroke-width:1.00000012;stroke-linecap:butt;stroke-linejoin:miter;stroke-miterlimit:4;stroke-dasharray:none;stroke-opacity:1;paint-order:normal" />
      <path
         id="path4649"
         d="m 52.916665,145.39375 v 0.79375 0.52916 2.11667 a 2.6458332,2.6458332 0 0 0 2.645833,2.64583 2.6458332,2.6458332 0 0 0 2.645834,-2.64583 2.6458332,2.6458332 0 0 0 -2.645834,-2.64583 h -1.322916 v -0.79375 z m 1.322917,2.11666 h 1.322916 a 1.3229159,1.3229159 0 0 1 1.322917,1.32292 1.3229159,1.3229159 0 0 1 -1.322917,1.32292 1.3229159,1.3229159 0 0 1 -1.322916,-1.32292 z"
         style="opacity:1;fill:#ffffff;fill-opacity:1;stroke:none;stroke-width:1.00000012;stroke-linecap:butt;stroke-linejoin:miter;stroke-miterlimit:4;stroke-dasharray:none;stroke-opacity:1;paint-order:normal"
         inkscape:connector-curvature="0" />
      <path
         inkscape:connector-curvature="0"
         id="path4546"
         d="m 64.558332,145.39375 v 0.79375 0.26458 2.38125 a 2.6458331,2.6458331 0 0 0 2.645833,2.64583 2.6458331,2.6458331 0 0 0 2.645833,-2.64583 2.6458331,2.6458331 0 0 0 -2.645833,-2.64583 h -1.322916 v -0.79375 z m 1.322917,2.11666 h 1.322916 a 1.3229159,1.3229159 0 0 1 1.322917,1.32292 1.3229159,1.3229159 0 0 1 -1.322917,1.32292 1.3229159,1.3229159 0 0 1 -1.322916,-1.32292 z"
         style="opacity:1;fill:#ffffff;fill-opacity:1;stroke:none;stroke-width:1.00000012;stroke-linecap:butt;stroke-linejoin:miter;stroke-miterlimit:4;stroke-dasharray:none;stroke-opacity:1;paint-order:normal" />
      <path
         inkscape:connector-curvature="0"
         id="path4548"
         d="m 70.379165,145.39375 v 0.79375 0.26458 2.38125 a 2.6458331,2.6458331 0 0 0 2.645834,2.64583 2.6458331,2.6458331 0 0 0 2.645833,-2.64583 2.6458331,2.6458331 0 0 0 -2.645833,-2.64583 h -1.322917 v -0.79375 z m 1.322917,2.11666 h 1.322917 a 1.3229159,1.3229159 0 0 1 1.322916,1.32292 1.3229159,1.3229159 0 0 1 -1.322916,1.32292 1.3229159,1.3229159 0 0 1 -1.322917,-1.32292 z"
         style="opacity:1;fill:#ffffff;fill-opacity:1;stroke:none;stroke-width:1.00000012;stroke-linecap:butt;stroke-linejoin:miter;stroke-miterlimit:4;stroke-dasharray:none;stroke-opacity:1;paint-order:normal" />
      <path
         inkscape:connector-curvature="0"
         id="path4669"
         d="m 80.697917,146.1875 a 2.6458332,2.6458332 0 0 0 -2.645833,2.64583 2.6458332,2.6458332 0 0 0 2.645833,2.64583 2.6458332,2.6458332 0 0 0 2.287199,-1.32291 h -2.287199 a 1.3229166,1.3229166 0 0 1 -1.322916,-1.32292 1.3229166,1.3229166 0 0 1 1.322916,-1.32292 1.3229166,1.3229166 0 0 1 1.322917,1.32292 h 1.322917 a 2.6458332,2.6458332 0 0 0 -2.645834,-2.64583 z"
         style="opacity:1;fill:#ffffff;fill-opacity:1;stroke:none;stroke-width:1;stroke-linecap:butt;stroke-linejoin:miter;stroke-miterlimit:4;stroke-dasharray:none;stroke-opacity:1;paint-order:normal" />
      <path
         inkscape:connector-curvature="0"
         style="opacity:1;fill:#ffffff;fill-opacity:1;stroke:none;stroke-width:0.30000001;stroke-linecap:butt;stroke-linejoin:miter;stroke-miterlimit:4;stroke-dasharray:none;stroke-opacity:1;paint-order:stroke fill markers"
         d="m 76.199998,145.39376 v 4.7625 a 1.3229166,1.3229166 0 0 0 0.0031,0.0935 1.3229166,1.3229166 0 0 0 0.01602,0.13126 1.3229166,1.3229166 0 0 0 0.02894,0.12919 1.3229166,1.3229166 0 0 0 0.04186,0.12557 1.3229166,1.3229166 0 0 0 0.05426,0.12041 1.3229166,1.3229166 0 0 0 0.06563,0.11472 1.3229166,1.3229166 0 0 0 0.077,0.10749 1.3229166,1.3229166 0 0 0 0.08733,0.0997 1.3229166,1.3229166 0 0 0 0.09664,0.0899 1.3229166,1.3229166 0 0 0 0.105418,0.0801 1.3229166,1.3229166 0 0 0 0.112657,0.0693 1.3229166,1.3229166 0 0 0 0.118854,0.0574 1.3229166,1.3229166 0 0 0 0.124023,0.0455 1.3229166,1.3229166 0 0 0 0.128159,0.0326 1.3229166,1.3229166 0 0 0 0.130741,0.0196 1.3229166,1.3229166 0 0 0 0.132292,0.007 v -2.64583 -3.43958 z"
         id="path5228" />
      <path
         inkscape:connector-curvature="0"
         style="opacity:0.322;fill:url(#radialGradient5382);fill-opacity:1;stroke:none;stroke-width:1.40946293;stroke-linecap:butt;stroke-linejoin:round;stroke-miterlimit:4;stroke-dasharray:none;stroke-opacity:1;paint-order:stroke fill markers"
         d="m 305,560.0332 a 2.4861359,2.4861359 0 0 0 -2.48633,2.48633 h 4.97266 A 2.4861359,2.4861359 0 0 0 305,560.0332 Z"
         transform="scale(0.26458333)"
         id="circle5349" />
      <circle
         r="0.52916664"
         cy="148.83333"
         cx="80.697914"
         id="path5311"
         style="opacity:1;fill:#ffffff;fill-opacity:1;stroke:none;stroke-width:0.30000001;stroke-linecap:butt;stroke-linejoin:round;stroke-miterlimit:4;stroke-dasharray:none;stroke-opacity:1;paint-order:stroke fill markers" />
    </g>
    <path
       style="opacity:0.31700003;fill:url(#radialGradient5375);fill-opacity:1;stroke:none;stroke-width:0.30000001;stroke-linecap:butt;stroke-linejoin:round;stroke-miterlimit:4;stroke-dasharray:none;stroke-opacity:1;paint-order:stroke fill markers"
       d="m 28.045835,292.76628 c -0.730626,0 -1.322917,0.59229 -1.322917,1.32291 h 0.165002 c 0,-0.5845 0.574874,-1.11006 1.159375,-1.11006 0.584502,0 1.156624,0.52556 1.156624,1.11006 h 0.164833 c 0,-0.73062 -0.592291,-1.32291 -1.322917,-1.32291 z"
       id="path5364"
       inkscape:connector-curvature="0"
       sodipodi:nodetypes="sccsccs" />
  </g>
</svg>
