<?xml version="1.0" encoding="UTF-8" standalone="no"?>
<!-- Created with Inkscape (http://www.inkscape.org/) -->

<svg
   xmlns:dc="http://purl.org/dc/elements/1.1/"
   xmlns:cc="http://creativecommons.org/ns#"
   xmlns:rdf="http://www.w3.org/1999/02/22-rdf-syntax-ns#"
   xmlns:svg="http://www.w3.org/2000/svg"
   xmlns="http://www.w3.org/2000/svg"
   xmlns:sodipodi="http://sodipodi.sourceforge.net/DTD/sodipodi-0.dtd"
   xmlns:inkscape="http://www.inkscape.org/namespaces/inkscape"
   width="205"
   height="65"
   viewBox="0 0 54.239582 17.197917"
   version="1.1"
   id="svg8"
   inkscape:version="0.92.1 r15371"
   sodipodi:docname="logo.svg">
  <defs
     id="defs2" />
  <sodipodi:namedview
     id="base"
     pagecolor="#ffffff"
     bordercolor="#666666"
     borderopacity="1.0"
     inkscape:pageopacity="0.0"
     inkscape:pageshadow="2"
     inkscape:zoom="5.6568542"
     inkscape:cx="129.02733"
     inkscape:cy="-11.329203"
     inkscape:document-units="mm"
     inkscape:current-layer="g4704"
     showgrid="false"
     inkscape:window-width="3840"
     inkscape:window-height="2074"
     inkscape:window-x="0"
     inkscape:window-y="26"
     inkscape:window-maximized="1"
     units="px">
    <inkscape:grid
       type="xygrid"
       id="grid4485" />
  </sodipodi:namedview>
  <metadata
     id="metadata5">
    <rdf:RDF>
      <cc:Work
         rdf:about="">
        <dc:format>image/svg+xml</dc:format>
        <dc:type
           rdf:resource="http://purl.org/dc/dcmitype/StillImage" />
        <dc:title></dc:title>
      </cc:Work>
    </rdf:RDF>
  </metadata>
  <g
     inkscape:label="Layer 1"
     inkscape:groupmode="layer"
     id="layer1"
     transform="translate(0,-279.80207)">
    <g
       id="g4704"
       transform="matrix(0.94578318,0,0,0.94578318,0.52916684,15.573204)">
      <g
         transform="matrix(1.1277747,-0.65112101,0.65112101,1.1277747,-98.12725,253.82914)"
         id="g4636">
        <path
           id="path4500"
           d="m 57.446619,61.269128 v 0 l 6.875034,3.426664 -5.291667,5.291666 -3.96875,-3.96875 1.313614,-7.881689 -0.812351,-2.437061 -2.112534,10.33167 0.03494,0.822591 5.660284,5.572954 7.269358,-8.247628 -8.967928,-2.910417"
           style="fill:#132830;fill-opacity:1;fill-rule:evenodd;stroke:none;stroke-width:4.01100016;stroke-linecap:square;stroke-linejoin:bevel;stroke-miterlimit:4;stroke-dasharray:none;stroke-opacity:1"
           inkscape:connector-curvature="0"
           sodipodi:nodetypes="cccccccccccc" />
        <path
           style="fill:#ffffff;fill-opacity:1;fill-rule:evenodd;stroke:none;stroke-width:4.01100016;stroke-linecap:square;stroke-linejoin:bevel;stroke-miterlimit:4;stroke-dasharray:none;stroke-opacity:1"
           d="m 55.302049,54.919128 -1.852084,11.1125 5.55625,5.55625 7.408334,-7.408333 -9.228379,-3.691247 0.260451,0.78083 6.614583,2.645833 -5.291666,5.291667 -3.96875,-3.96875 1.313614,-7.881689 z"
           id="path4487"
           inkscape:connector-curvature="0" />
      </g>
      <g
         transform="matrix(1.0927497,0,0,1.0927497,-7.7527026,-9.6869451)"
         id="g4668">
        <g
           aria-label="Babble"
           style="font-style:normal;font-weight:normal;font-size:10.58333302px;line-height:125%;font-family:sans-serif;text-align:center;letter-spacing:0px;word-spacing:0px;text-anchor:middle;fill:#ffffff;fill-opacity:1;stroke:none;stroke-width:0.26458332px;stroke-linecap:butt;stroke-linejoin:miter;stroke-opacity:1"
           id="text4632"
           transform="translate(-45.203232,210.61233)">
          <path
             d="m 74.575816,60.086805 h 1.958536 q 0.981853,0 1.498617,0.434082 0.521932,0.434082 0.521932,1.245402 0,0.790649 -0.465088,1.286743 -0.465088,0.496094 -1.312581,0.640788 v 0.02067 q 0.645955,0.160197 0.971517,0.589112 0.330729,0.423746 0.330729,1.054199 0,1.059367 -0.728638,1.674316 -0.72347,0.609782 -2.015381,0.609782 h -2.361613 z m -0.180868,3.364136 h 1.436605 q 1.064535,0 1.617472,-0.41858 0.552938,-0.418579 0.552938,-1.229899 0,-0.614949 -0.403076,-0.930175 -0.403076,-0.320394 -1.18339,-0.320394 h -1.405599 z m -0.09819,0.465087 -0.697632,3.260783 h 1.767334 q 1.038696,0 1.596802,-0.449585 0.563273,-0.454752 0.563273,-1.328084 0,-0.749308 -0.465088,-1.116211 -0.465088,-0.366903 -1.421102,-0.366903 z"
             style="font-style:italic;font-variant:normal;font-weight:300;font-stretch:normal;font-family:'Open Sans';-inkscape-font-specification:'Open Sans Light Italic';text-align:start;text-anchor:start;fill:#ffffff;fill-opacity:1;stroke-width:0.26458332px"
             id="path4706"
             inkscape:connector-curvature="0" />
          <path
             d="m 82.053395,61.936821 q 1.198894,0 1.441773,1.131714 h 0.03101 l 0.304891,-1.043864 h 0.413411 l -1.18339,5.617228 h -0.423747 l 0.232544,-1.415934 h -0.03101 q -0.434082,0.733805 -0.966349,1.126546 -0.532267,0.392741 -1.224732,0.392741 -1.452107,0 -1.452107,-1.932699 0,-1.018025 0.387573,-1.943033 0.387573,-0.925008 1.033529,-1.42627 0.651123,-0.506429 1.436604,-0.506429 z m -1.286743,5.343343 q 0.45992,0 0.914673,-0.320394 0.45992,-0.320394 0.821655,-0.857829 0.366903,-0.537434 0.558106,-1.188557 0.191203,-0.651123 0.191203,-1.100708 0,-0.408244 -0.134359,-0.728638 -0.134359,-0.325562 -0.397909,-0.511597 -0.26355,-0.191203 -0.65629,-0.191203 -0.640788,0 -1.157552,0.423747 -0.516765,0.423747 -0.847494,1.27124 -0.330729,0.842326 -0.330729,1.679484 0,0.785482 0.258382,1.157552 0.258382,0.366903 0.780314,0.366903 z"
             style="font-style:italic;font-variant:normal;font-weight:300;font-stretch:normal;font-family:'Open Sans';-inkscape-font-specification:'Open Sans Light Italic';text-align:start;text-anchor:start;fill:#ffffff;fill-opacity:1;stroke-width:0.26458332px"
             id="path4708"
             inkscape:connector-curvature="0" />
          <path
             d="m 87.102183,67.724581 q -0.583944,0 -0.961182,-0.304891 -0.377238,-0.30489 -0.501261,-0.857828 h -0.03101 l -0.284221,1.080037 h -0.413411 l 1.689819,-8.040853 h 0.490926 q -0.676961,3.24528 -0.837158,3.8809 h 0.03101 q 0.480591,-0.806152 1.028361,-1.18339 0.54777,-0.382405 1.193726,-0.382405 1.452107,0 1.452107,1.937866 0,1.049031 -0.392741,1.963704 -0.39274,0.914673 -1.038696,1.410767 -0.645955,0.496093 -1.426269,0.496093 z m 1.29191,-5.343343 q -0.470255,0 -0.930175,0.320394 -0.459921,0.315227 -0.831991,0.873332 -0.366903,0.558105 -0.54777,1.214396 -0.180868,0.656291 -0.180868,1.064535 0,0.666626 0.33073,1.049031 0.330729,0.377238 0.857828,0.377238 0.640788,0 1.157552,-0.428914 0.516765,-0.428915 0.847494,-1.266073 0.330729,-0.837158 0.330729,-1.679484 0,-0.785482 -0.253214,-1.152384 -0.253215,-0.372071 -0.780315,-0.372071 z"
             style="font-style:italic;font-variant:normal;font-weight:300;font-stretch:normal;font-family:'Open Sans';-inkscape-font-specification:'Open Sans Light Italic';text-align:start;text-anchor:start;fill:#ffffff;fill-opacity:1;stroke-width:0.26458332px"
             id="path4710"
             inkscape:connector-curvature="0" />
          <path
             d="m 93.055307,67.724581 q -0.583944,0 -0.961182,-0.304891 -0.377238,-0.30489 -0.501261,-0.857828 h -0.03101 l -0.284221,1.080037 h -0.413411 l 1.689819,-8.040853 h 0.490926 q -0.676961,3.24528 -0.837158,3.8809 h 0.03101 q 0.480591,-0.806152 1.028361,-1.18339 0.54777,-0.382405 1.193726,-0.382405 1.452107,0 1.452107,1.937866 0,1.049031 -0.392741,1.963704 -0.39274,0.914673 -1.038696,1.410767 -0.645955,0.496093 -1.426269,0.496093 z m 1.29191,-5.343343 q -0.470255,0 -0.930175,0.320394 -0.459921,0.315227 -0.831991,0.873332 -0.366903,0.558105 -0.54777,1.214396 -0.180868,0.656291 -0.180868,1.064535 0,0.666626 0.33073,1.049031 0.330729,0.377238 0.857828,0.377238 0.640788,0 1.157552,-0.428914 0.516765,-0.428915 0.847494,-1.266073 0.330729,-0.837158 0.330729,-1.679484 0,-0.785482 -0.253214,-1.152384 -0.253215,-0.372071 -0.780315,-0.372071 z"
             style="font-style:italic;font-variant:normal;font-weight:300;font-stretch:normal;font-family:'Open Sans';-inkscape-font-specification:'Open Sans Light Italic';text-align:start;text-anchor:start;fill:#ffffff;fill-opacity:1;stroke-width:0.26458332px"
             id="path4712"
             inkscape:connector-curvature="0" />
          <path
             d="m 97.303109,67.641899 h -0.485758 l 1.725993,-8.040853 h 0.485758 z"
             style="font-style:italic;font-variant:normal;font-weight:300;font-stretch:normal;font-family:'Open Sans';-inkscape-font-specification:'Open Sans Light Italic';text-align:start;text-anchor:start;fill:#ffffff;fill-opacity:1;stroke-width:0.26458332px"
             id="path4714"
             inkscape:connector-curvature="0" />
          <path
             d="m 101.30803,67.745252 q -0.894,0 -1.39526,-0.563273 -0.501261,-0.568441 -0.501261,-1.581299 0,-0.935343 0.366902,-1.793172 0.366899,-0.857829 1.007689,-1.364258 0.64596,-0.506429 1.4211,-0.506429 0.58911,0 0.94051,0.315226 0.3514,0.315227 0.3514,0.857829 0,0.935344 -0.84749,1.42627 -0.84233,0.490926 -2.50631,0.490926 h -0.170528 q -0.03101,0.227376 -0.03101,0.506429 0,0.852661 0.382408,1.302246 0.38241,0.444417 1.10071,0.444417 0.68213,0 1.42627,-0.377238 v 0.485759 q -0.72347,0.356567 -1.54513,0.356567 z m 0.83716,-5.364014 q -0.67696,0 -1.2609,0.599447 -0.57878,0.594279 -0.83716,1.591634 h 0.25321 q 2.67167,0 2.67167,-1.395264 0,-0.346232 -0.22737,-0.56844 -0.22221,-0.227377 -0.59945,-0.227377 z"
             style="font-style:italic;font-variant:normal;font-weight:300;font-stretch:normal;font-family:'Open Sans';-inkscape-font-specification:'Open Sans Light Italic';text-align:start;text-anchor:start;fill:#ffffff;fill-opacity:1;stroke-width:0.26458332px"
             id="path4716"
             inkscape:connector-curvature="0" />
        </g>
        <text
           id="text4662"
           y="280.6355"
           x="57.735947"
           style="font-style:normal;font-weight:normal;font-size:10.58333302px;line-height:125%;font-family:sans-serif;text-align:center;letter-spacing:0px;word-spacing:0px;text-anchor:middle;fill:#7fb3c6;fill-opacity:1;stroke:none;stroke-width:0.26458332px;stroke-linecap:butt;stroke-linejoin:miter;stroke-opacity:1;"
           xml:space="preserve"><tspan
             style="font-style:normal;font-variant:normal;font-weight:bold;font-stretch:normal;font-size:2.11666656px;font-family:'Open Sans';-inkscape-font-specification:'Open Sans Bold';text-align:end;text-anchor:end;fill:#7fb3c6;fill-opacity:1;stroke-width:0.26458332px;"
             y="280.6355"
             x="57.735947"
             id="tspan4660"
             sodipodi:role="line">CMS</tspan></text>
      </g>
    </g>
  </g>
</svg>
